<svg id="svg" xmlns="http://www.w3.org/2000/svg" xmlns:xlink="http://www.w3.org/1999/xlink" width="400" height="279.3969849246231" viewBox="0, 0, 400,279.3969849246231"><g id="svgg"><path id="path0" d="M333.435 101.840 C 332.181 104.143,331.598 106.953,331.590 110.735 L 331.583 113.513 319.533 113.624 C 312.905 113.685,305.542 113.735,303.171 113.735 L 298.860 113.735 294.028 120.138 C 287.800 128.392,284.451 132.734,284.266 132.798 C 284.123 132.847,281.386 129.303,273.457 118.802 L 269.630 113.735 264.715 113.735 L 259.799 113.735 259.790 119.305 C 259.782 124.597,259.767 124.854,259.497 124.458 C 253.690 115.957,245.106 111.900,234.646 112.710 C 225.764 113.399,217.923 118.317,214.051 125.628 L 213.652 126.382 213.548 123.199 C 213.491 121.449,213.434 118.732,213.422 117.163 L 213.400 114.309 205.067 114.358 C 187.298 114.462,186.522 114.484,184.925 114.948 C 180.060 116.358,177.122 118.719,175.100 122.842 C 174.529 124.007,174.604 124.016,173.616 122.655 C 163.981 109.383,141.361 109.256,131.575 122.419 C 130.371 124.038,130.473 124.011,129.984 122.830 C 127.353 116.483,120.793 112.655,112.563 112.665 C 103.569 112.675,97.226 116.545,94.896 123.442 L 94.531 124.523 93.800 123.442 C 84.351 109.476,61.208 108.920,51.173 122.419 C 49.969 124.038,50.071 124.011,49.582 122.830 C 44.122 109.657,21.242 108.966,15.166 121.790 C 12.659 127.082,13.498 133.848,17.132 137.633 C 19.983 140.603,21.817 141.422,30.905 143.784 C 39.002 145.889,40.598 146.925,40.604 150.083 C 40.612 153.700,37.604 155.655,31.993 155.682 C 26.620 155.709,22.885 153.140,22.341 149.044 L 22.235 148.241 17.039 148.241 L 11.843 148.241 11.943 149.623 C 12.353 155.254,15.680 160.349,20.603 162.883 C 26.618 165.979,36.491 165.931,42.797 162.775 C 46.081 161.132,49.392 157.814,50.274 155.282 C 50.510 154.607,50.539 154.621,51.508 155.891 C 60.906 168.209,83.154 168.297,92.546 156.052 C 93.567 154.721,93.440 154.726,94.127 155.988 C 97.599 162.367,102.921 165.086,111.893 165.066 C 121.099 165.045,128.643 161.116,130.676 155.282 C 130.903 154.632,130.983 154.643,131.491 155.401 C 132.997 157.647,137.343 161.165,140.417 162.627 C 146.647 165.590,155.197 166.019,161.884 163.704 C 169.275 161.147,175.010 155.286,177.362 147.886 C 177.878 146.264,178.559 143.224,178.559 142.548 C 178.559 142.195,178.581 142.200,179.188 142.673 C 179.533 142.943,180.358 143.478,181.022 143.863 C 181.685 144.247,182.265 144.622,182.311 144.695 C 182.356 144.769,181.147 147.124,179.623 149.927 C 172.652 162.754,171.692 164.541,171.692 164.678 C 171.692 164.759,174.403 164.824,177.736 164.824 L 183.779 164.824 188.498 155.278 L 193.216 145.732 198.116 145.730 L 203.015 145.729 203.015 155.276 L 203.015 164.824 208.208 164.824 L 213.400 164.824 213.410 157.998 C 213.417 153.603,213.477 151.262,213.580 151.424 C 213.668 151.562,214.134 152.335,214.617 153.141 C 224.021 168.849,249.027 169.389,258.985 154.099 L 259.883 152.721 259.927 158.437 L 259.971 164.154 264.910 164.154 C 267.627 164.154,269.867 164.135,269.889 164.112 C 269.911 164.089,269.968 156.449,270.015 147.134 L 270.101 130.197 274.791 136.233 C 281.521 144.894,284.060 148.074,284.245 148.074 C 284.412 148.074,286.965 144.871,294.221 135.560 L 298.409 130.187 298.494 147.128 C 298.542 156.446,298.598 164.089,298.620 164.112 C 298.642 164.135,307.328 164.154,317.923 164.154 L 337.186 164.154 337.186 159.790 L 337.186 155.426 338.031 156.442 C 347.354 167.645,366.621 168.268,377.113 157.704 C 384.273 150.495,386.491 138.314,382.474 128.257 L 381.885 126.782 382.633 125.326 C 385.932 118.900,386.088 108.996,383.006 101.633 C 382.562 100.575,382.351 100.808,380.742 104.131 C 377.919 109.960,375.017 113.462,371.665 115.085 L 370.884 115.463 369.487 114.867 C 362.515 111.893,354.276 111.842,347.179 114.729 L 345.538 115.397 344.646 115.063 C 341.035 113.712,338.065 109.887,335.259 102.973 C 334.332 100.690,334.129 100.564,333.435 101.840 M35.420 122.529 C 38.239 123.523,39.987 125.531,40.541 128.408 L 40.737 129.429 43.932 129.540 C 47.695 129.671,47.280 129.480,46.895 130.906 C 46.416 132.678,45.896 135.923,45.896 137.140 L 45.896 138.224 45.352 137.866 C 43.491 136.642,40.390 135.522,35.595 134.344 C 27.020 132.236,25.107 131.279,24.364 128.724 C 23.048 124.198,29.657 120.495,35.420 122.529 M115.822 122.529 C 118.641 123.523,120.389 125.531,120.943 128.408 L 121.139 129.429 124.334 129.540 C 128.097 129.671,127.682 129.480,127.297 130.906 C 126.818 132.678,126.298 135.923,126.298 137.140 L 126.298 138.224 125.754 137.866 C 123.893 136.642,120.792 135.522,115.997 134.344 C 107.422 132.236,105.509 131.279,104.766 128.724 C 103.450 124.198,110.059 120.495,115.822 122.529 M76.001 123.104 C 84.944 125.307,89.509 135.312,86.175 145.403 C 82.041 157.912,63.354 158.562,58.346 146.371 C 52.892 133.094,62.917 119.881,76.001 123.104 M156.403 123.104 C 165.346 125.307,169.911 135.312,166.577 145.403 C 162.443 157.912,143.757 158.562,138.748 146.371 C 133.294 133.094,143.319 119.881,156.403 123.104 M240.993 123.104 C 248.187 124.876,252.695 131.670,252.199 139.991 C 251.655 149.125,246.150 154.809,237.605 155.060 C 229.076 155.310,223.160 150.124,222.088 141.458 C 220.577 129.234,229.744 120.333,240.993 123.104 M362.144 123.120 C 375.396 126.307,377.573 147.172,365.315 153.513 C 361.560 155.456,356.115 155.670,352.067 154.036 C 345.234 151.275,341.719 143.178,343.538 134.387 C 345.276 125.987,353.460 121.031,362.144 123.120 M327.124 123.394 C 331.621 123.470,333.717 123.563,333.753 123.687 C 333.783 123.787,334.009 124.417,334.256 125.086 L 334.705 126.303 334.100 127.796 C 333.768 128.617,333.219 130.273,332.881 131.476 L 332.266 133.663 321.744 133.708 L 311.223 133.752 311.223 128.518 L 311.223 123.283 315.885 123.283 C 318.450 123.283,323.507 123.333,327.124 123.394 M203.015 130.151 L 203.015 136.181 199.791 136.169 C 198.017 136.162,194.703 136.101,192.425 136.033 L 188.285 135.909 187.156 135.333 C 182.665 133.040,183.488 125.469,188.358 124.278 C 188.635 124.210,192.046 124.147,195.938 124.138 L 203.015 124.121 203.015 130.151 M100.075 139.845 C 102.242 141.242,104.294 141.961,111.307 143.784 C 119.404 145.889,121.000 146.925,121.006 150.083 C 121.014 153.700,118.006 155.655,112.395 155.682 C 107.036 155.709,103.287 153.139,102.747 149.070 L 102.644 148.292 99.870 148.183 C 96.594 148.054,96.938 148.239,97.333 146.815 C 97.707 145.468,98.322 141.480,98.326 140.369 C 98.331 139.370,98.482 138.836,98.721 138.980 C 98.826 139.043,99.435 139.432,100.075 139.845 M332.260 143.844 C 333.253 148.199,334.513 151.497,336.025 153.700 L 336.495 154.384 328.438 154.495 C 324.006 154.556,318.320 154.606,315.802 154.606 L 311.223 154.606 311.223 148.995 L 311.223 143.384 321.689 143.384 L 332.154 143.384 332.260 143.844 " stroke="none" fill="#ffffff" fill-rule="evenodd"></path></g></svg>
